<svg xmlns="http://www.w3.org/2000/svg" viewBox="0 0 24 24"><defs><style>.cls-1{fill:#693895;}.cls-2{fill:#fff;}</style></defs><title>Asset 1</title><g id="Layer_2" data-name="Layer 2"><g id="Layer_1-2" data-name="Layer 1"><rect class="cls-1" width="24" height="24" rx="1" ry="1"/><path class="cls-2" d="M8.5,10.83h7V9.67a3.5,3.5,0,0,0-7,0Zm-1.17,0V9.67a4.67,4.67,0,0,1,9.34,0v1.16h1.75a.58.58,0,0,1,.58.59v7a.58.58,0,0,1-.58.58H5.58A.58.58,0,0,1,5,18.42v-7a.58.58,0,0,1,.58-.59Zm5.25,4.58a1.75,1.75,0,1,0-2.31-1.66,1.74,1.74,0,0,0,1.15,1.64v1.86a.58.58,0,0,0,1.16,0Z"/></g></g></svg>